<svg xmlns="http://www.w3.org/2000/svg" fill="none" viewBox="0 0 270 48" height="48" width="270">
<path fill="#1A1A1A" d="M53.4268 39.4068V6.33008H67.1226C70.5465 6.33008 73.2599 7.29912 75.3272 9.17261C77.3299 11.0461 78.3635 13.5656 78.3635 16.7312C78.3635 19.8967 77.3299 22.4162 75.3272 24.2897C73.3245 26.1632 70.5465 27.1322 67.1226 27.1322H60.8561V39.4068H53.4268ZM60.8561 20.6719H66.3473C67.7686 20.6719 68.8669 20.3489 69.7067 19.6383C70.4819 18.9277 70.9342 17.9586 70.9342 16.7312C70.9342 15.5037 70.5465 14.5347 69.7067 13.824C68.9315 13.1134 67.7686 12.7904 66.3473 12.7904H60.8561V20.6719Z"></path>
<path fill="#1A1A1A" d="M88.9579 15.2461C92.3172 15.2461 94.9659 16.0859 96.904 17.8302C98.8421 19.5745 99.8112 22.0294 99.8112 25.3242V39.4076H93.0925V36.3713C92.3818 37.4049 91.4128 38.2447 90.1853 38.8262C88.9579 39.4722 87.6658 39.7306 86.3737 39.7306C84.048 39.7306 82.1746 39.0846 80.6887 37.7279C79.2028 36.3713 78.4922 34.6916 78.4922 32.6889C78.4922 28.1021 81.9161 25.4534 88.7641 24.6781L93.0925 24.2259V24.0967C93.0925 22.9338 92.7048 22.0294 91.9942 21.3188C91.2836 20.6727 90.2499 20.2851 88.9579 20.2851C87.795 20.2851 86.8906 20.6081 86.1153 21.2542C85.3401 21.9002 84.8879 22.8046 84.8233 23.9675L78.7506 22.8046C79.1382 20.4789 80.3011 18.6701 82.1746 17.2488C84.1126 15.9567 86.3737 15.2461 88.9579 15.2461ZM88.118 34.8208C89.6039 34.8208 90.8314 34.304 91.7358 33.2703C92.6402 32.2367 93.0925 31.0092 93.1571 29.5233V29.4587V29.3295V29.1357L88.6995 29.6526C87.5366 29.7818 86.6968 30.1048 86.0507 30.6216C85.4047 31.1384 85.1463 31.7198 85.1463 32.4951C85.1463 33.2057 85.4047 33.7225 85.9215 34.1748C86.4384 34.627 87.2136 34.8208 88.118 34.8208Z"></path>
<path fill="#1A1A1A" d="M118.482 15.6328H125.588L113.055 47.9989H105.949L109.696 38.2438L100.522 15.6328H108.016L113.12 29.4578L118.482 15.6328Z"></path>
<path fill="#1A1A1A" d="M142.579 39.7953C138.057 39.7953 134.18 38.3094 131.015 35.3377C127.849 32.366 126.299 28.2314 126.299 22.8693C126.299 17.5073 127.914 13.3727 131.209 10.401C134.503 7.42923 138.444 5.94336 143.16 5.94336C147.295 5.94336 150.719 6.9124 153.367 8.9151C156.081 10.9178 157.696 13.6957 158.342 17.1843L150.977 18.6701C150.59 16.7321 149.685 15.1816 148.264 14.0187C146.843 12.8559 145.098 12.2744 143.031 12.2744C140.253 12.2744 137.992 13.2435 136.248 15.117C134.568 16.9905 133.728 19.5746 133.728 22.8693C133.728 26.1641 134.568 28.6836 136.248 30.5571C137.927 32.4306 140.188 33.335 142.902 33.335C145.098 33.335 146.907 32.7536 148.328 31.6553C149.75 30.5571 150.59 29.1358 150.848 27.3269H141.868V21.3835H157.76V39.4077H150.977V35.9837C150.267 37.1466 149.168 38.051 147.618 38.7617C146.067 39.4723 144.388 39.7953 142.579 39.7953Z"></path>
<path fill="#1A1A1A" d="M161.96 39.4075V6.00781H168.872V39.4075H161.96Z"></path>
<path fill="#1A1A1A" d="M184.506 39.7952C180.824 39.7952 177.787 38.6324 175.462 36.3067C173.136 33.9809 171.973 31.0738 171.973 27.5207C171.973 23.9675 173.136 20.9958 175.462 18.7347C177.787 16.4089 180.824 15.2461 184.506 15.2461C188.124 15.2461 191.096 16.4089 193.486 18.7347C195.876 21.0604 197.039 23.9675 197.039 27.5207C197.039 31.0738 195.876 34.0456 193.486 36.3067C191.096 38.6324 188.124 39.7952 184.506 39.7952ZM184.506 33.9163C186.186 33.9163 187.542 33.3349 188.576 32.1721C189.61 31.0092 190.127 29.4587 190.127 27.5853C190.127 25.7118 189.61 24.1613 188.576 22.9984C187.542 21.8356 186.186 21.2542 184.506 21.2542C182.826 21.2542 181.405 21.8356 180.372 22.9984C179.338 24.1613 178.821 25.7118 178.821 27.5853C178.821 29.4587 179.338 31.0092 180.372 32.1721C181.405 33.3349 182.762 33.9163 184.506 33.9163Z"></path>
<path fill="#1A1A1A" d="M211.058 39.7952C207.44 39.7952 204.533 38.6324 202.272 36.3713C200.011 34.1102 198.848 31.1384 198.848 27.5207C198.848 23.9029 200.011 20.9312 202.272 18.67C204.533 16.4089 207.44 15.2461 211.058 15.2461C214.223 15.2461 216.872 16.0213 218.939 17.5072C221.006 18.9931 222.234 21.0604 222.622 23.7091L215.903 25.0011C215.709 23.7737 215.192 22.8692 214.417 22.1586C213.577 21.448 212.543 21.125 211.316 21.125C209.701 21.125 208.409 21.7064 207.44 22.8692C206.471 24.0321 206.019 25.5826 206.019 27.5207C206.019 29.4587 206.535 31.0092 207.504 32.1721C208.474 33.3349 209.766 33.9163 211.381 33.9163C213.836 33.9163 215.321 32.6889 215.838 30.2986L222.622 31.6552C222.169 34.1748 220.942 36.1775 218.875 37.5987C216.807 39.0846 214.159 39.7952 211.058 39.7952Z"></path>
<path fill="#1A1A1A" d="M234.896 15.2461C238.256 15.2461 240.904 16.0859 242.843 17.8302C244.781 19.5745 245.75 22.0294 245.75 25.3242V39.4076H239.031V36.3713C238.32 37.4049 237.351 38.2447 236.124 38.8262C234.896 39.4722 233.604 39.7306 232.312 39.7306C229.987 39.7306 228.113 39.0846 226.627 37.7279C225.141 36.3713 224.431 34.6916 224.431 32.6889C224.431 28.1021 227.855 25.4534 234.703 24.6781L239.031 24.2259V24.0967C239.031 22.9338 238.643 22.0294 237.933 21.3188C237.222 20.6727 236.188 20.2851 234.896 20.2851C233.733 20.2851 232.829 20.6081 232.054 21.2542C231.279 21.9002 230.826 22.8046 230.762 23.9675L224.689 22.8046C225.077 20.4789 226.24 18.6701 228.113 17.2488C230.051 15.9567 232.312 15.2461 234.896 15.2461ZM234.056 34.8208C235.542 34.8208 236.77 34.304 237.674 33.2703C238.579 32.2367 239.031 31.0092 239.096 29.5233V29.4587V29.3295V29.1357L234.638 29.6526C233.475 29.7818 232.635 30.1048 231.989 30.6216C231.343 31.1384 231.085 31.7198 231.085 32.4951C231.085 33.2057 231.343 33.7225 231.86 34.1748C232.377 34.627 233.087 34.8208 234.056 34.8208Z"></path>
<path fill="#1A1A1A" d="M249.949 39.4075V6.00781H256.861V39.4075H249.949Z"></path>
<path fill="#1A1A1A" d="M262.159 10.4016V6.33158H260.673V5.68555H264.355V6.39618H262.934V10.4662H262.159V10.4016Z"></path>
<path fill="#1A1A1A" d="M264.808 10.4016V5.68555H265.712L267.198 9.30331L268.684 5.68555H269.588V10.4016H268.813V7.17141L267.456 10.4016H266.81L265.454 7.17141V10.4016H264.808Z"></path>
<path fill="#1A1A1A" d="M39.0848 9.04441L25.1306 0.969044C22.8694 -0.323015 20.0269 -0.323015 17.7012 0.969044L3.68237 9.04441C1.42126 10.4011 0 12.856 0 15.5047V31.6554C0 34.3042 1.42126 36.7591 3.68237 38.1157L17.7012 46.1911C18.8641 46.8371 20.1561 47.1602 21.3836 47.1602C22.6756 47.1602 23.9677 46.8371 25.0659 46.1911L39.0848 38.1157C41.3459 36.8237 42.7672 34.3042 42.7672 31.6554V15.5047C42.8318 12.856 41.4105 10.4011 39.0848 9.04441ZM35.6608 32.0431L21.642 40.1184C21.5128 40.183 21.319 40.183 21.1898 40.1184L7.17093 32.0431C7.04172 31.9785 6.91252 31.7847 6.91252 31.6554V15.5047C6.91252 15.3109 6.97712 15.1817 7.17093 15.1171L21.1898 7.04172C21.2544 6.97712 21.319 6.97712 21.4482 6.97712C21.5128 6.97712 21.642 6.97712 21.7066 7.04172L35.7254 15.1171C35.8546 15.1817 35.9838 15.3755 35.9838 15.5047V20.0915H21.2544C19.3163 20.0915 17.7658 21.642 17.7658 23.5801C17.7658 25.5182 19.3163 27.0686 21.2544 27.0686H35.8546V31.6554C35.8546 31.8493 35.79 31.9785 35.6608 32.0431Z"></path>
</svg>